<svg width="15" height="16" viewBox="0 0 15 16" fill="none" xmlns="http://www.w3.org/2000/svg">
<path d="M6.89333 12.9649L10.0833 6.73156H7.88333V2.69823L4.58333 8.93156H6.89333V12.9649ZM7.33333 15.1649C6.31889 15.1649 5.36556 14.9724 4.47333 14.5874C3.58111 14.2024 2.805 13.6799 2.145 13.0199C1.485 12.3599 0.9625 11.5838 0.5775 10.6916C0.1925 9.79934 0 8.84601 0 7.83156C0 6.81712 0.1925 5.86379 0.5775 4.97156C0.9625 4.07934 1.485 3.30323 2.145 2.64323C2.805 1.98323 3.58111 1.46073 4.47333 1.07573C5.36556 0.69073 6.31889 0.49823 7.33333 0.49823C8.34778 0.49823 9.30111 0.69073 10.1933 1.07573C11.0856 1.46073 11.8617 1.98323 12.5217 2.64323C13.1817 3.30323 13.7042 4.07934 14.0892 4.97156C14.4742 5.86379 14.6667 6.81712 14.6667 7.83156C14.6667 8.84601 14.4742 9.79934 14.0892 10.6916C13.7042 11.5838 13.1817 12.3599 12.5217 13.0199C11.8617 13.6799 11.0856 14.2024 10.1933 14.5874C9.30111 14.9724 8.34778 15.1649 7.33333 15.1649Z" fill="#894189"/>
<path d="M7.26667 12.4982L10.1667 6.83152H8.16667V3.16486L5.16667 8.83152H7.26667V12.4982ZM7.66667 14.4982C6.74444 14.4982 5.87778 14.3232 5.06667 13.9732C4.25556 13.6232 3.55 13.1482 2.95 12.5482C2.35 11.9482 1.875 11.2426 1.525 10.4315C1.175 9.62041 1 8.75374 1 7.83152C1 6.9093 1.175 6.04263 1.525 5.23152C1.875 4.42041 2.35 3.71486 2.95 3.11486C3.55 2.51486 4.25556 2.03986 5.06667 1.68986C5.87778 1.33986 6.74444 1.16486 7.66667 1.16486C8.58889 1.16486 9.45555 1.33986 10.2667 1.68986C11.0778 2.03986 11.7833 2.51486 12.3833 3.11486C12.9833 3.71486 13.4583 4.42041 13.8083 5.23152C14.1583 6.04263 14.3333 6.9093 14.3333 7.83152C14.3333 8.75374 14.1583 9.62041 13.8083 10.4315C13.4583 11.2426 12.9833 11.9482 12.3833 12.5482C11.7833 13.1482 11.0778 13.6232 10.2667 13.9732C9.45555 14.3232 8.58889 14.4982 7.66667 14.4982Z" fill="white"/>
</svg>
